# 3ds Max Wavefront OBJ Exporter v0.97b - (c)2007 guruware
# 创建的文件:08.09.2019 13:10:45

mtllib column.mtl

#
# object Box001
#

v  -16.6500 -50.0000 16.6500
v  -16.6500 -50.0000 -16.6500
v  16.6500 -50.0000 -16.6500
v  16.6500 -50.0000 16.6500
v  -16.6500 50.0000 16.6500
v  16.6500 50.0000 16.6500
v  16.6500 50.0000 -16.6500
v  -16.6500 50.0000 -16.6500
# 8 vertices

vn 0.0000 -1.0000 -0.0000
vn 0.0000 1.0000 -0.0000
vn 0.0000 0.0000 1.0000
vn 1.0000 0.0000 -0.0000
vn 0.0000 0.0000 -1.0000
vn -1.0000 0.0000 -0.0000
# 6 vertex normals

vt 0.7498 0.2503 -0.0000
vt 0.7497 0.7498 -0.0000
vt 0.2502 0.7497 -0.0000
vt 0.2503 0.2502 -0.0000
vt 0.2502 0.2503 1.0000
vt 0.7497 0.2502 1.0000
vt 0.7498 0.7497 1.0000
vt 0.2503 0.7498 1.0000
vt 0.2502 -0.0000 0.2503
vt 0.7497 -0.0000 0.2502
vt 0.7497 1.0000 0.2502
vt 0.2502 1.0000 0.2503
vt 0.2502 -0.0000 0.7497
vt 0.7497 -0.0000 0.7498
vt 0.7497 1.0000 0.7498
vt 0.2502 1.0000 0.7497
# 16 texture coords

o Box001
g Box001
usemtl 01___Default
s 2
f 1/1/1 2/2/1 3/3/1 
f 3/3/1 4/4/1 1/1/1 
s 4
f 5/5/2 6/6/2 7/7/2 
f 7/7/2 8/8/2 5/5/2 
s 8
f 1/9/3 4/10/3 6/11/3 
f 6/11/3 5/12/3 1/9/3 
s 16
f 4/13/4 3/14/4 7/15/4 
f 7/15/4 6/16/4 4/13/4 
s 32
f 3/13/5 2/14/5 8/15/5 
f 8/15/5 7/16/5 3/13/5 
s 64
f 2/9/6 1/10/6 5/11/6 
f 5/11/6 8/12/6 2/9/6 
# 12 faces

