# 3ds Max Wavefront OBJ Exporter v0.97b - (c)2007 guruware
# 创建的文件:07.09.2019 22:17:36

mtllib stairs_plain.mtl

#
# object Box001
#

v  -50.0000 -50.0000 50.0000
v  -50.0000 -50.0000 -50.0000
v  50.0000 -50.0000 -50.0000
v  50.0000 -50.0000 50.0000
v  0.0000 0.0126 50.0000
v  0.0000 0.0126 -50.0000
v  -50.0000 0.0000 -50.0000
v  -50.0000 0.0000 50.0000
v  50.0000 0.0126 50.0000
v  50.0000 0.0126 -50.0000
v  50.0000 50.0126 50.0000
v  50.0000 50.0126 -50.0000
v  0.0000 50.0126 -50.0000
v  0.0000 50.0126 50.0000
# 14 vertices

vn 0.0000 -1.0000 -0.0000
vn -0.0003 1.0000 -0.0000
vn 0.0000 0.0000 1.0000
vn 1.0000 0.0000 -0.0000
vn 0.0000 0.0000 -1.0000
vn -1.0000 0.0000 -0.0000
vn 0.0000 1.0000 -0.0000
# 7 vertex normals

vt 1.0000 0.0000 -0.0000
vt 1.0000 1.0000 -0.0000
vt 0.0000 1.0000 -0.0000
vt 0.0000 0.0000 -0.0000
vt 0.5000 0.0000 0.5001
vt 0.5000 1.0000 0.5001
vt 0.0000 1.0000 0.4999
vt 0.0000 0.0000 0.4999
vt 0.0000 -0.0000 0.0000
vt 1.0000 -0.0000 0.0000
vt 1.0000 0.5001 0.0000
vt 0.5000 0.5001 0.0000
vt 0.0000 0.4999 0.0000
vt 0.0000 -0.0000 1.0000
vt 1.0000 -0.0000 1.0000
vt 1.0000 0.5001 1.0000
vt 0.0000 0.5001 1.0000
vt 1.0000 0.4999 1.0000
vt 0.5000 0.5001 1.0000
vt 1.0000 0.4999 0.0000
vt 1.0000 0.0000 1.0000
vt 1.0000 1.0000 1.0000
vt 0.5000 1.0000 1.0000
vt 0.5000 0.0000 1.0000
vt 0.0000 1.0000 1.0000
vt 0.0000 0.5001 0.5000
vt 1.0000 0.5001 0.5000
vt 1.0000 1.0000 0.5000
vt 0.0000 1.0000 0.5000
vt 1.0000 1.0000 0.0000
vt 0.5000 1.0000 0.0000
# 31 texture coords

o Box001
g Box001
usemtl 01___Default
s 2
f 1/1/1 2/2/1 3/3/1 
f 3/3/1 4/4/1 1/1/1 
s 4
f 5/5/2 6/6/2 7/7/2 
f 7/7/2 8/8/2 5/5/2 
s 8
f 1/9/3 4/10/3 9/11/3 
f 1/9/3 9/11/3 5/12/3 
f 1/9/3 5/12/3 8/13/3 
s 16
f 4/14/4 3/15/4 10/16/4 
f 10/16/4 9/17/4 4/14/4 
s 32
f 3/14/5 2/15/5 7/18/5 
f 3/14/5 7/18/5 6/19/5 
f 3/14/5 6/19/5 10/17/5 
s 64
f 2/9/6 1/10/6 8/20/6 
f 8/20/6 7/13/6 2/9/6 
s 4
f 11/21/7 12/22/7 13/23/7 
f 13/23/7 14/24/7 11/21/7 
s off
f 9/17/4 10/16/4 12/22/4 
f 12/22/4 11/25/4 9/17/4 
f 10/17/5 6/19/5 13/23/5 
f 13/23/5 12/25/5 10/17/5 
f 6/26/6 5/27/6 14/28/6 
f 14/28/6 13/29/6 6/26/6 
f 5/12/3 9/11/3 11/30/3 
f 11/30/3 14/31/3 5/12/3 
# 24 faces

